<svg id="Layer_1" data-name="Layer 1" xmlns="http://www.w3.org/2000/svg" viewBox="0 0 35 35"><title>200914_Betavo_Icons</title><path d="M12.29,29.9A17.47,17.47,0,0,1,4,27.79l-.42-.25A2.62,2.62,0,0,0,3,27.26L2.5,27V25.72l.73-.16a2.46,2.46,0,0,1,.72,0l.21,0a11,11,0,0,0,5.48-1.16,6.6,6.6,0,0,1-3.82-3.84,1.07,1.07,0,0,1,0-1.13A.75.75,0,0,1,6,19.3a6.61,6.61,0,0,1-2.39-4.54l0-.36a1,1,0,0,1,.42-1,1.08,1.08,0,0,1,.48-.16,6.66,6.66,0,0,1-.81-2.68A6.42,6.42,0,0,1,4.39,7a1.1,1.1,0,0,1,.85-.73,1.13,1.13,0,0,1,1,.5,15.31,15.31,0,0,0,4,3.35,15.25,15.25,0,0,0,5.83,2l.25,0a6.35,6.35,0,0,1,.65-3.21A6.54,6.54,0,0,1,22,5.18a6.45,6.45,0,0,1,5.49,1.67,11.16,11.16,0,0,0,2.75-1.08l.23-.12.21-.1.27,0,1.13,0L31.74,6.7A7.16,7.16,0,0,1,31.19,8l.1,0,.72-.3.37.69a1,1,0,0,1-.14,1.16,11.86,11.86,0,0,1-2.56,2.67,17.63,17.63,0,0,1-3.89,11.37A16.33,16.33,0,0,1,15.1,29.69,19.29,19.29,0,0,1,12.29,29.9ZM6.68,27.15a16.06,16.06,0,0,0,8.16.84,14.63,14.63,0,0,0,9.6-5.55A15.91,15.91,0,0,0,28,12.17a1.64,1.64,0,0,1,.68-1.4c.19-.14.37-.28.55-.44l-.57.09-3.57.46,3-2a6.33,6.33,0,0,0,.74-.58c-.36.11-.73.21-1.1.3a1.29,1.29,0,0,1-1.22-.33,5,5,0,0,0-8,1.44,4.72,4.72,0,0,0-.41,2.92,1.13,1.13,0,0,1-.22,1,1.15,1.15,0,0,1-1,.32c-.36,0-.72-.06-1.07-.11a16.92,16.92,0,0,1-6.48-2.24,17.45,17.45,0,0,1-3.75-3,4.81,4.81,0,0,0-.17,1.82A4.89,4.89,0,0,0,7.3,13.9a1,1,0,0,1,.49.76l.13,1.11-1.31-.18-.47-.07a6.4,6.4,0,0,1-.66-.14A4.89,4.89,0,0,0,7.2,18a4.74,4.74,0,0,0,2,1l3.56.86-3.57.82a7.79,7.79,0,0,1-1.3.18,4.91,4.91,0,0,0,3.4,2.23h.1a1.59,1.59,0,0,1,.81.2l.63.37-.35.89-.18.18a.88.88,0,0,1-.13.11A12.3,12.3,0,0,1,6.68,27.15ZM27.63,7Z" fill="#858c93"/></svg>
