<svg id="Layer_1" data-name="Layer 1" xmlns="http://www.w3.org/2000/svg" viewBox="0 0 35 35"><title>200914_Betavo_Icons</title><path d="M23.07,32.5a1.27,1.27,0,0,1-1.34-1.35V21.32a1.32,1.32,0,0,1,.37-1,1.28,1.28,0,0,1,1-.36H25.4c.14-.74.29-1.47.44-2.21l0-.13h-2.8a1.28,1.28,0,0,1-1-.36,1.2,1.2,0,0,1-.35-.92v-.72c0-.41,0-.82,0-1.23a3.1,3.1,0,0,1,2.81-3.11,8.13,8.13,0,0,1,1.54-.07V8.89H23.58a3.8,3.8,0,0,0-3.31,1.77,5.44,5.44,0,0,0-.83,2.6,18.48,18.48,0,0,0-.05,2.12c0,.3,0,.61,0,.91A1.26,1.26,0,0,1,18,17.64H15.89q0,1.17,0,2.34H18a1.24,1.24,0,0,1,1.42,1.43v9.67A1.24,1.24,0,0,1,18,32.5H5.32a2.66,2.66,0,0,1-.71-.08,2.8,2.8,0,0,1-2.05-2l-.05-.15V4.72l0-.14a2.92,2.92,0,0,1,2-2l.14,0H30.27l.14,0a2.92,2.92,0,0,1,2,2l0,.14V30.3l-.1.25a1.88,1.88,0,0,1-.12.3,2.68,2.68,0,0,1-2.5,1.64h-6.7ZM23.73,22V30.5h6a.71.71,0,0,0,.71-.5l0,0V5A.87.87,0,0,0,30,4.5H5A.87.87,0,0,0,4.51,5V29.94a.8.8,0,0,0,.59.55H17.39V22H15.25a1.32,1.32,0,0,1-1-.37,1.3,1.3,0,0,1-.37-1c0-1.21,0-2.43,0-3.64a1.3,1.3,0,0,1,.37-1,1.35,1.35,0,0,1,1-.36h2.14V15.4a22.7,22.7,0,0,1,.05-2.32A7.5,7.5,0,0,1,18.6,9.56a5.74,5.74,0,0,1,4.94-2.67h3.23a1.34,1.34,0,0,1,1,.37,1.26,1.26,0,0,1,.37.95c0,1.24,0,2.47,0,3.71a1.26,1.26,0,0,1-1.31,1.32h-.68a7.22,7.22,0,0,0-1.25,0,1.16,1.16,0,0,0-1.13,1.25c0,.36,0,.73,0,1.1v0h3a1.26,1.26,0,0,1,1.1.42A1.28,1.28,0,0,1,28,17.21l-.19.95c-.18.87-.35,1.75-.51,2.62A1.39,1.39,0,0,1,25.81,22H23.73Z" fill="#fff"/></svg>