<svg id="Layer_1" data-name="Layer 1" xmlns="http://www.w3.org/2000/svg" viewBox="0 0 35 35"><title>200914_Betavo_Icons</title><path d="M17.42,32.5a14.76,14.76,0,0,1-7.84-2.26.22.22,0,0,0-.25,0L6.1,31l-2.72.69.4-1.44L4,29.38a18.28,18.28,0,0,1,.58-2,2.74,2.74,0,0,0-.24-2.77A12.89,12.89,0,0,1,2.5,17.19,14.94,14.94,0,0,1,13.84,3h0A15,15,0,0,1,27.6,28.56a14.74,14.74,0,0,1-8.53,3.85A15.2,15.2,0,0,1,17.42,32.5Zm-8-4.06a2,2,0,0,1,1.05.32A13.26,13.26,0,1,0,14.27,4.64h0a13.23,13.23,0,0,0-10,12.6,11.28,11.28,0,0,0,1.59,6.45A4.47,4.47,0,0,1,6.23,28c-.16.42-.28.86-.41,1.31,1-.26,2.05-.52,3-.79A2.3,2.3,0,0,1,9.44,28.44ZM22,26.61a6.54,6.54,0,0,1-1.68-.23,18.56,18.56,0,0,1-9.88-6.87,11.24,11.24,0,0,1-2.38-4.82C8,14.42,8,14.15,8,13.9a3,3,0,0,0,0-.31,5.45,5.45,0,0,1,1.89-4.3,3,3,0,0,1,2.08-.75,2.45,2.45,0,0,1,2.56,1.88c.3.84.69,1.69,1.07,2.52l0,.09a1.79,1.79,0,0,1-.33,2.08c-.21.22-.4.45-.6.68l-.38.45a10.38,10.38,0,0,0,5.22,4.45c.37-.5.74-1,1.11-1.44a1.62,1.62,0,0,1,2.17-.51l2.59,1.19.75.35a1.63,1.63,0,0,1,1,1.82h0A4.94,4.94,0,0,1,25,25.74,5.42,5.42,0,0,1,22,26.61ZM12.11,10.27H12c-.57,0-.78.09-1,.26a3.68,3.68,0,0,0-1.37,2.92c0,.07,0,.18,0,.3a6.17,6.17,0,0,0,.08.62,9.26,9.26,0,0,0,2,4.07,16.9,16.9,0,0,0,9,6.27A4,4,0,0,0,24,24.3a3.27,3.27,0,0,0,1.38-2.41h0v0l0,0-.74-.34L22,20.32l-.05,0,0,0c-.4.5-.79,1-1.18,1.53a1.42,1.42,0,0,1-1.71.53A12.28,12.28,0,0,1,12.66,17a1.44,1.44,0,0,1,.19-1.75l.46-.53c.21-.25.42-.5.64-.74l.07-.08a.35.35,0,0,0,0-.1l0-.09c-.39-.86-.8-1.74-1.13-2.66C12.59,10.38,12.44,10.27,12.11,10.27Z" fill="#858c93"/></svg>
