<?xml version="1.0" standalone="no"?>
<!DOCTYPE svg PUBLIC "-//W3C//DTD SVG 20010904//EN"
 "http://www.w3.org/TR/2001/REC-SVG-20010904/DTD/svg10.dtd">
<svg version="1.0" xmlns="http://www.w3.org/2000/svg"
 width="750.000000pt" height="750.000000pt" viewBox="0 0 750.000000 750.000000"
 preserveAspectRatio="xMidYMid meet">
<metadata>
Created by potrace 1.11, written by Peter Selinger 2001-2013
</metadata>
<g transform="translate(0.000000,750.000000) scale(0.100000,-0.100000)"
fill="#000000" stroke="none">
<path d="M835 5268 c-37 -121 -45 -150 -45 -163 0 -8 -4 -15 -9 -15 -6 0 -8
-9 -6 -20 2 -11 -1 -20 -7 -20 -5 0 -8 -6 -5 -14 3 -7 1 -18 -3 -22 -5 -5 -11
-21 -14 -34 -2 -14 -5 -26 -7 -27 -1 -2 -2 -6 -3 -10 -1 -5 -8 -19 -15 -32 -9
-16 -9 -21 -1 -16 7 4 5 -6 -4 -24 -9 -17 -14 -31 -10 -31 4 0 1 -7 -6 -15 -6
-8 -9 -19 -5 -25 3 -5 1 -10 -4 -10 -6 0 -10 -3 -10 -7 1 -5 0 -11 -1 -15 -6
-19 -8 -25 -15 -55 -4 -18 -12 -33 -17 -33 -5 0 -7 -4 -3 -10 3 -5 0 -24 -8
-42 -7 -18 -13 -40 -12 -48 0 -8 -5 -21 -12 -28 -7 -8 -11 -18 -7 -23 3 -6 0
-16 -6 -24 -7 -8 -9 -15 -5 -15 4 0 2 -7 -5 -15 -7 -8 -9 -15 -4 -15 4 0 3 -5
-3 -11 -6 -6 -9 -18 -6 -25 3 -8 0 -14 -6 -14 -6 0 -10 -3 -9 -7 2 -8 -27
-113 -39 -143 -7 -17 -10 -27 -17 -55 -2 -11 -11 -39 -19 -62 -9 -22 -13 -44
-10 -47 4 -3 1 -6 -5 -6 -6 0 -9 -9 -7 -20 2 -11 0 -20 -6 -20 -5 0 -9 -7 -9
-15 0 -13 -21 -84 -37 -125 -6 -14 -11 -41 -15 -67 -1 -7 -4 -13 -8 -13 -4 0
-7 -6 -7 -12 -1 -19 -52 -190 -63 -213 -6 -11 -12 -31 -14 -45 -3 -14 -5 -27
-6 -30 -2 -3 -2 -8 -1 -12 0 -5 -4 -8 -10 -8 -6 0 -9 -7 -6 -15 4 -8 2 -17 -3
-20 -6 -4 -10 -16 -10 -29 0 -12 -3 -26 -7 -30 -4 -3 -8 -13 -10 -21 -7 -35
-9 -41 -16 -52 -5 -7 -5 -13 -1 -13 3 0 1 -7 -6 -15 -7 -8 -10 -15 -7 -15 3 0
0 -15 -8 -34 -8 -18 -17 -49 -20 -67 -3 -19 -10 -36 -16 -37 -5 -2 -7 -8 -3
-13 3 -5 2 -15 -3 -21 -4 -7 -8 -16 -9 -20 -1 -5 -3 -10 -4 -13 -1 -3 -3 -8
-4 -12 -7 -36 -31 -110 -38 -120 -6 -7 -7 -17 -3 -23 3 -5 1 -10 -6 -10 -7 0
-10 -3 -6 -6 3 -3 1 -18 -5 -33 -5 -14 -12 -35 -14 -46 -10 -41 -13 -50 -14
-52 -2 -2 -4 -7 -5 -13 -1 -5 -4 -13 -5 -17 -1 -5 -2 -11 -1 -15 0 -5 -3 -8
-8 -8 -4 0 -9 -63 -10 -139 -2 -149 5 -182 50 -232 29 -32 103 -79 124 -79 8
0 15 -5 15 -11 0 -5 4 -7 10 -4 5 3 16 3 23 -2 6 -4 53 -8 103 -9 50 0 95 -3
100 -6 5 -3 18 -2 29 2 11 4 32 4 47 -1 15 -4 30 -4 32 0 4 6 71 7 101 1 6 -1
12 -2 15 -1 3 1 91 4 195 7 257 7 265 7 265 14 0 3 12 6 28 6 15 1 47 4 72 8
25 4 54 8 65 10 11 1 25 5 32 9 6 4 18 4 27 1 9 -3 16 -1 16 4 0 6 8 11 18 10
9 0 31 3 47 7 17 4 37 8 45 9 8 0 17 3 20 6 4 5 106 38 135 45 12 2 63 22 90
35 38 18 95 39 99 37 2 -1 13 6 24 16 11 10 26 19 34 21 7 1 20 6 28 11 31 20
49 31 91 54 24 13 46 27 49 30 3 4 21 18 40 31 19 13 40 29 47 35 6 5 31 26
54 45 23 19 56 50 73 69 17 19 43 46 58 61 15 15 24 30 21 34 -4 3 -1 6 5 6
12 0 118 158 114 171 -1 5 2 9 7 9 9 0 56 100 53 113 -1 4 2 7 7 7 5 0 12 7
15 16 3 9 2 12 -4 9 -6 -4 -2 9 9 28 11 19 22 49 24 65 3 17 8 35 11 40 3 4 7
20 10 35 4 15 9 39 12 55 4 15 8 34 9 42 6 43 19 70 33 74 10 3 76 5 147 6 72
0 205 2 298 3 92 1 167 1 167 -1 0 -12 -32 -62 -40 -62 -6 0 -10 -9 -10 -19 0
-11 -4 -21 -9 -23 -7 -2 -61 -107 -67 -130 -1 -5 -3 -10 -4 -13 -1 -3 -3 -8
-4 -12 -1 -5 -7 -26 -14 -47 -6 -22 -9 -43 -6 -48 3 -4 1 -8 -5 -8 -5 0 -10
-8 -10 -17 -1 -10 -3 -34 -6 -53 -8 -54 -11 -230 -3 -233 3 -1 7 -18 9 -37 2
-19 6 -39 10 -45 4 -5 9 -19 11 -30 1 -11 5 -22 8 -25 3 -3 20 -36 39 -74 37
-75 154 -200 237 -253 34 -22 220 -113 240 -116 10 -2 26 -6 34 -10 46 -17 57
-20 75 -23 33 -6 60 -12 60 -15 0 -1 11 -2 25 -3 14 -1 30 -4 35 -7 6 -3 22
-5 38 -4 15 1 27 -1 27 -6 0 -4 18 -6 40 -5 23 1 40 -2 40 -8 0 -6 4 -5 9 3 5
7 11 9 14 4 3 -5 22 -9 41 -8 20 1 36 -1 36 -5 0 -5 16 -4 35 0 19 4 35 5 35
1 0 -9 42 -7 57 2 7 4 14 3 18 -2 3 -6 15 -7 28 -2 14 5 30 5 40 0 9 -6 17 -6
17 -1 0 10 30 9 46 -1 6 -3 14 -3 18 0 7 8 22 11 86 17 25 3 59 7 75 10 17 3
45 7 63 10 18 2 47 10 66 16 37 12 75 21 94 22 6 1 12 5 12 10 0 4 3 7 8 7 4
-1 10 0 15 1 4 1 10 4 15 5 4 1 23 8 42 16 19 7 39 12 43 11 5 -1 6 2 2 8 -3
5 -1 11 4 11 20 3 26 5 66 27 50 28 78 45 85 52 3 3 20 16 38 29 36 25 158
141 149 141 -3 0 5 12 18 26 26 28 105 159 105 174 0 5 9 29 20 54 13 32 16
46 7 46 -9 0 -9 2 0 8 6 4 14 19 17 32 20 99 22 119 19 138 -1 12 2 22 8 22 5
0 7 6 3 12 -11 18 -12 48 -2 48 5 0 6 6 1 13 -8 13 -11 27 -15 65 -1 12 -6 22
-10 22 -4 0 -6 8 -5 18 1 23 -40 128 -65 165 -11 15 -17 27 -14 27 3 0 -11 16
-32 35 l-37 34 70 1 c39 0 418 1 843 1 516 1 772 4 772 11 0 6 7 7 16 4 9 -3
35 -1 58 6 57 16 58 16 85 22 14 3 28 11 31 17 4 6 9 10 11 8 11 -7 85 39 128
80 45 43 101 120 105 145 1 6 6 18 11 26 10 16 11 18 21 61 6 25 4 27 -36 27
-23 1 -44 3 -47 6 -3 2 -15 1 -28 -4 -14 -5 -26 -5 -34 3 -6 6 -11 7 -11 1 0
-5 -9 -10 -20 -10 -11 0 -20 4 -20 9 0 4 -5 5 -10 2 -14 -9 -245 -9 -259 -1
-6 4 -11 3 -11 -1 0 -5 -9 -9 -20 -9 -11 0 -20 4 -20 9 0 4 -5 5 -11 2 -12 -8
-188 -9 -196 -1 -3 2 -15 1 -28 -4 -14 -5 -26 -5 -34 3 -6 6 -11 7 -11 1 0 -5
-9 -10 -20 -10 -11 0 -20 4 -20 8 0 4 -6 5 -14 2 -21 -8 -226 -10 -226 -2 0 4
-13 3 -29 -2 -19 -5 -33 -4 -40 3 -6 6 -11 7 -11 1 0 -5 -9 -10 -20 -10 -11 0
-20 4 -20 7 0 4 -13 4 -29 -1 -19 -5 -33 -4 -40 3 -6 6 -11 7 -11 1 0 -5 -9
-10 -20 -10 -11 0 -20 4 -20 7 0 4 -13 4 -29 -1 -19 -5 -33 -4 -40 3 -6 6 -11
7 -11 1 0 -5 -9 -10 -20 -10 -11 0 -20 4 -20 7 0 4 -13 4 -29 -1 -19 -5 -33
-4 -40 3 -6 6 -11 7 -11 1 0 -5 -9 -10 -20 -10 -11 0 -20 4 -20 7 0 4 -12 4
-28 0 -15 -5 -37 -4 -50 0 -12 5 -22 5 -22 1 0 -4 -85 -7 -190 -7 -104 0 -190
3 -190 7 0 4 -13 3 -29 -2 -19 -5 -33 -4 -40 3 -6 6 -11 7 -11 1 0 -5 -9 -10
-20 -10 -11 0 -20 4 -20 7 0 4 -13 4 -29 -1 -19 -5 -33 -4 -40 3 -6 6 -11 7
-11 1 0 -5 -9 -10 -20 -10 -11 0 -20 4 -20 7 0 4 -13 4 -29 -1 -19 -5 -33 -4
-40 3 -6 6 -11 7 -11 1 0 -5 -9 -10 -20 -10 -11 0 -20 4 -20 7 0 4 -13 4 -29
-1 -19 -5 -33 -4 -40 3 -6 6 -11 7 -11 1 0 -5 -9 -10 -20 -10 -11 0 -20 4 -20
7 0 4 -12 4 -28 0 -15 -5 -37 -4 -50 0 -12 5 -22 5 -22 1 0 -4 -85 -7 -190 -7
-104 0 -190 3 -190 7 0 4 -13 3 -29 -2 -19 -5 -33 -4 -40 3 -6 6 -11 7 -11 1
0 -5 -9 -10 -20 -10 -11 0 -20 4 -20 7 0 4 -13 4 -29 -1 -19 -5 -33 -4 -40 3
-6 6 -11 7 -11 1 0 -5 -9 -10 -20 -10 -11 0 -20 4 -20 7 0 4 -13 4 -29 -1 -19
-5 -33 -4 -40 3 -6 6 -11 7 -11 1 0 -5 -9 -10 -20 -10 -11 0 -20 4 -20 7 0 4
-13 4 -29 -1 -19 -5 -33 -4 -40 3 -6 6 -11 7 -11 1 0 -5 -9 -10 -20 -10 -11 0
-20 4 -20 7 0 4 -12 4 -28 0 -15 -5 -37 -4 -50 0 -12 5 -22 5 -22 1 0 -9 -73
-7 -89 2 -6 4 -11 3 -11 -1 0 -5 -9 -9 -20 -9 -11 0 -20 4 -20 9 0 4 -5 5 -11
2 -12 -8 -188 -9 -196 -1 -3 2 -15 1 -28 -4 -14 -5 -26 -5 -34 3 -6 6 -11 7
-11 1 0 -5 -9 -10 -20 -10 -11 0 -20 4 -20 9 0 4 -5 5 -10 2 -14 -9 -245 -9
-259 -1 -6 4 -11 3 -11 -1 0 -5 -9 -9 -20 -9 -11 0 -20 4 -20 9 0 4 -5 5 -11
2 -5 -4 -52 -6 -102 -5 -51 0 -101 1 -112 0 -11 -1 -27 -1 -35 0 -64 3 -604
-1 -611 -6 -5 -3 -9 -1 -9 5 0 6 -11 6 -29 1 -19 -5 -33 -4 -40 3 -6 6 -11 7
-11 1 0 -5 -9 -10 -20 -10 -11 0 -20 4 -20 7 0 4 -13 4 -29 -1 -19 -5 -33 -4
-40 3 -7 7 -11 7 -11 1 0 -11 -35 -12 -46 -2 -3 4 -18 2 -32 -3 -18 -7 -27 -6
-32 2 -5 7 -10 7 -14 1 -3 -5 -25 -12 -48 -16 -38 -6 -155 -52 -168 -66 -3 -3
-23 -18 -45 -35 -22 -16 -48 -40 -58 -52 -10 -13 -24 -29 -31 -36 -19 -19 -75
-125 -69 -130 3 -3 1 -12 -3 -19 -5 -7 -10 -20 -12 -28 -6 -27 -7 -190 -2
-190 6 0 34 -91 32 -102 -1 -5 2 -8 8 -8 5 0 10 -5 10 -10 0 -18 62 -94 102
-125 56 -43 79 -68 70 -74 -5 -3 -27 -34 -50 -68 -46 -68 -170 -196 -182 -188
-4 3 -10 -2 -14 -10 -3 -8 -12 -15 -19 -15 -8 0 -20 -7 -27 -15 -7 -8 -16 -12
-21 -9 -5 3 -9 0 -9 -6 0 -6 -4 -8 -10 -5 -5 3 -10 1 -10 -5 0 -6 -4 -8 -10
-5 -5 3 -10 1 -10 -5 0 -6 -4 -9 -9 -5 -5 3 -13 0 -16 -6 -4 -5 -13 -8 -20 -5
-8 3 -15 0 -17 -5 -2 -5 -13 -11 -26 -12 -12 0 -22 -4 -22 -7 0 -5 -54 -13
-107 -14 -18 -1 -33 -5 -33 -9 0 -5 -8 -7 -17 -6 -10 1 -22 0 -28 -1 -12 -2
-99 1 -102 4 -1 1 3 20 9 42 6 21 11 42 10 47 -1 4 3 7 10 7 6 0 9 3 5 6 -3 4
0 21 8 39 7 19 11 36 8 39 -3 3 -1 11 4 18 5 7 16 36 23 63 7 28 17 56 23 63
5 6 7 12 3 12 -3 0 3 23 14 50 11 28 19 54 18 58 -1 4 5 21 12 37 7 17 13 37
14 45 3 23 29 104 36 110 3 3 6 12 6 20 3 30 9 55 16 60 4 3 8 17 10 30 2 14
6 30 9 35 6 10 22 68 20 73 -1 1 6 16 14 32 9 17 13 30 10 30 -3 0 2 16 10 36
8 20 12 40 9 45 -3 5 -1 9 4 9 8 0 10 6 14 50 1 11 5 20 9 20 4 0 11 15 14 33
4 17 10 37 13 42 4 6 8 19 9 30 3 22 29 105 46 145 5 14 11 38 13 54 2 16 9
35 15 42 6 8 9 14 5 14 -3 0 0 16 8 35 8 19 12 35 9 35 -3 0 0 6 6 13 6 8 8
17 4 20 -3 4 -1 7 5 7 6 0 9 9 7 20 -2 11 0 20 4 20 7 0 21 47 22 77 1 5 5 13
11 20 5 7 7 17 3 23 -3 5 -2 10 3 10 6 0 13 17 17 38 4 20 10 42 15 47 4 6 10
24 13 40 3 17 10 43 16 58 6 16 9 32 6 37 -3 5 0 10 5 12 6 2 12 13 13 26 0
12 6 22 11 22 5 0 7 3 3 6 -3 3 3 29 12 57 10 29 19 55 20 60 0 4 2 9 2 12 1
3 3 10 4 15 1 6 3 11 5 13 2 3 11 40 12 55 1 6 5 12 10 12 4 0 7 3 6 8 -3 15
15 82 23 82 4 0 6 9 4 20 -2 11 0 20 6 20 5 0 8 3 8 8 -1 4 0 9 1 12 2 6 9 33
13 55 2 8 6 18 10 21 4 4 7 17 7 29 0 12 3 25 7 29 4 3 8 12 10 19 1 7 4 19 5
27 2 8 7 20 11 26 3 6 4 14 0 18 -3 3 -204 6 -445 6 -342 0 -439 -3 -443 -12z
m3856 -1718 l46 0 -29 -87 c-16 -48 -34 -93 -40 -100 -6 -7 -8 -13 -5 -13 5 0
-36 -121 -60 -180 -3 -8 -8 -24 -10 -35 -2 -11 -8 -24 -13 -29 -6 -6 -10 -18
-10 -28 0 -10 -4 -18 -10 -18 -5 0 -7 -7 -4 -15 4 -8 2 -21 -4 -28 -6 -6 -11
-16 -12 -22 -1 -5 -6 -21 -11 -34 -5 -13 -11 -32 -13 -43 -1 -11 -7 -23 -12
-26 -5 -4 -10 -16 -12 -27 -3 -21 -5 -29 -15 -57 -4 -10 -10 -26 -14 -35 -3
-10 -8 -27 -10 -38 -2 -11 -8 -21 -13 -23 -6 -2 -10 -14 -10 -26 0 -13 -3 -26
-7 -30 -5 -4 -9 -12 -9 -17 -1 -5 -2 -13 -3 -17 -1 -9 -211 -10 -211 -2 0 3
-10 6 -22 6 -40 1 -99 14 -121 26 -12 7 -25 12 -29 13 -5 0 -23 14 -42 32 -41
37 -62 84 -60 131 3 49 25 132 34 132 5 0 7 9 5 20 -2 11 0 20 6 20 5 0 9 5 9
12 0 10 58 180 80 233 19 46 23 61 21 73 -1 6 4 12 10 12 7 0 10 2 7 6 -3 3 3
27 13 53 10 27 15 51 12 55 -4 3 -1 6 5 6 6 0 14 16 18 35 3 19 10 35 16 35 5
0 6 5 3 10 -13 20 39 25 257 23 123 -1 244 -2 269 -3z"/>
</g>
</svg>
